<!-- Generated by IcoMoon.io -->
<svg version="1.1" xmlns="http://www.w3.org/2000/svg" width="32" height="32" viewBox="0 0 32 32">
<title>client4</title>
<path fill="#2196f3" d="M4.961 12.532h-0.001c-0.905 0-1.639 0.715-1.639 1.597v0.001c0 0.882 0.734 1.597 1.639 1.597h0.001c0.905 0 1.638-0.715 1.638-1.597v-0.001c0-0.882-0.734-1.597-1.638-1.597z"></path>
<path fill="#2196f3" d="M17.055 12.022c-0.003-1.225-0.503-2.399-1.392-3.265s-2.093-1.354-3.35-1.357v0c-1.257 0.002-2.462 0.49-3.351 1.356s-1.39 2.041-1.392 3.266v6.754c0 0 9.484-1.029 9.485-6.753v-0.001z"></path>
<path fill="#2196f3" d="M-0 20.993c0.002 0.852 0.351 1.669 0.969 2.272s1.456 0.942 2.331 0.945c0.874-0.002 1.712-0.342 2.33-0.945s0.967-1.419 0.969-2.271v-4.7c0 0-6.599 0.717-6.599 4.699zM3.3 21.835c-0.171 0-0.338-0.049-0.48-0.142s-0.253-0.224-0.318-0.378-0.083-0.323-0.049-0.487c0.033-0.163 0.116-0.313 0.236-0.431s0.275-0.198 0.442-0.23c0.168-0.032 0.341-0.016 0.499 0.048s0.293 0.172 0.388 0.31c0.095 0.138 0.146 0.301 0.146 0.468 0 0.111-0.022 0.221-0.065 0.323s-0.107 0.196-0.187 0.274c-0.080 0.079-0.176 0.141-0.281 0.183s-0.218 0.064-0.331 0.064v-0.003z"></path>
<path fill="#2196f3" d="M10.036 21.312h-0.675v0.697h-0.352v-1.706h1.111v0.285h-0.759v0.441h0.675v0.284zM11.725 21.195c0 0.168-0.030 0.315-0.089 0.442s-0.145 0.224-0.255 0.293c-0.11 0.069-0.237 0.103-0.38 0.103-0.141 0-0.268-0.034-0.378-0.102s-0.197-0.165-0.258-0.291c-0.061-0.127-0.092-0.272-0.093-0.436v-0.084c0-0.168 0.030-0.316 0.090-0.443s0.146-0.226 0.257-0.294c0.111-0.069 0.237-0.103 0.38-0.103s0.268 0.034 0.379 0.103c0.111 0.068 0.196 0.166 0.257 0.294s0.091 0.275 0.091 0.442v0.076zM11.369 21.118c0-0.179-0.032-0.315-0.096-0.408s-0.155-0.139-0.274-0.139c-0.118 0-0.209 0.046-0.273 0.138s-0.096 0.226-0.097 0.403v0.083c0 0.174 0.032 0.309 0.096 0.405s0.156 0.144 0.277 0.144c0.118 0 0.209-0.046 0.272-0.138s0.095-0.228 0.096-0.405v-0.083zM12.866 21.562c0-0.066-0.023-0.117-0.070-0.152s-0.131-0.073-0.253-0.112c-0.122-0.040-0.218-0.079-0.289-0.117-0.194-0.105-0.291-0.246-0.291-0.423 0-0.092 0.026-0.174 0.077-0.246s0.127-0.129 0.224-0.17c0.098-0.041 0.207-0.061 0.328-0.061s0.23 0.022 0.326 0.067c0.095 0.044 0.169 0.106 0.221 0.186s0.080 0.172 0.080 0.274h-0.352c0-0.078-0.025-0.139-0.074-0.182s-0.118-0.066-0.207-0.066c-0.086 0-0.153 0.018-0.2 0.055s-0.071 0.084-0.071 0.143c0 0.055 0.028 0.102 0.083 0.139s0.139 0.073 0.247 0.105c0.2 0.060 0.346 0.135 0.437 0.224s0.137 0.2 0.137 0.333c0 0.148-0.056 0.264-0.168 0.348s-0.262 0.125-0.451 0.125c-0.131 0-0.251-0.024-0.359-0.071s-0.19-0.114-0.247-0.198c-0.056-0.084-0.084-0.18-0.084-0.291h0.353c0 0.188 0.112 0.282 0.337 0.282 0.084 0 0.149-0.017 0.196-0.050s0.070-0.082 0.070-0.143zM14.742 20.588h-0.523v1.421h-0.352v-1.421h-0.516v-0.285h1.39v0.285zM15.97 21.27h-0.675v0.457h0.792v0.282h-1.144v-1.706h1.141v0.285h-0.79v0.407h0.675v0.275zM16.925 21.385h-0.28v0.625h-0.352v-1.706h0.634c0.202 0 0.357 0.045 0.466 0.135s0.164 0.217 0.164 0.381c0 0.116-0.025 0.214-0.076 0.292s-0.126 0.139-0.229 0.185l0.369 0.697v0.016h-0.377l-0.32-0.625zM16.645 21.1h0.284c0.088 0 0.157-0.022 0.205-0.067s0.073-0.107 0.073-0.186c0-0.080-0.023-0.144-0.069-0.19s-0.115-0.069-0.21-0.069h-0.282v0.512zM18.775 21.409v0.601h-0.352v-1.706h0.666c0.128 0 0.241 0.023 0.338 0.070s0.173 0.114 0.225 0.2c0.052 0.086 0.079 0.184 0.079 0.294 0 0.167-0.057 0.299-0.172 0.396s-0.272 0.144-0.475 0.144h-0.308zM18.775 21.124h0.314c0.093 0 0.164-0.022 0.212-0.066s0.074-0.106 0.074-0.187c0-0.084-0.025-0.151-0.074-0.203s-0.117-0.078-0.204-0.080h-0.322v0.536zM21 21.27h-0.675v0.457h0.792v0.282h-1.144v-1.706h1.141v0.285h-0.79v0.407h0.675v0.275zM22.631 20.588h-0.523v1.421h-0.352v-1.421h-0.516v-0.285h1.39v0.285zM23.859 21.27h-0.675v0.457h0.792v0.282h-1.144v-1.706h1.141v0.285h-0.79v0.407h0.675v0.275zM24.814 21.385h-0.28v0.625h-0.352v-1.706h0.634c0.202 0 0.357 0.045 0.466 0.135s0.164 0.217 0.164 0.381c0 0.116-0.025 0.214-0.076 0.292s-0.126 0.139-0.229 0.185l0.369 0.697v0.016h-0.377l-0.32-0.625zM24.534 21.1h0.284c0.088 0 0.157-0.022 0.205-0.067s0.073-0.107 0.073-0.186c0-0.080-0.023-0.144-0.069-0.19s-0.115-0.069-0.21-0.069h-0.282v0.512zM26.6 21.562c0-0.066-0.023-0.117-0.070-0.152s-0.131-0.073-0.253-0.112c-0.122-0.040-0.218-0.079-0.289-0.117-0.194-0.105-0.291-0.246-0.291-0.423 0-0.092 0.026-0.174 0.077-0.246s0.127-0.129 0.224-0.17c0.098-0.041 0.207-0.061 0.328-0.061s0.23 0.022 0.326 0.067c0.095 0.044 0.169 0.106 0.221 0.186s0.080 0.172 0.080 0.274h-0.352c0-0.078-0.025-0.139-0.074-0.182s-0.118-0.066-0.207-0.066c-0.086 0-0.153 0.018-0.2 0.055s-0.071 0.084-0.071 0.143c0 0.055 0.028 0.102 0.083 0.139s0.139 0.073 0.247 0.105c0.2 0.060 0.346 0.135 0.437 0.224s0.137 0.2 0.137 0.333c0 0.148-0.056 0.264-0.168 0.348s-0.262 0.125-0.451 0.125c-0.131 0-0.251-0.024-0.359-0.071s-0.19-0.114-0.247-0.198c-0.056-0.084-0.084-0.18-0.084-0.291h0.353c0 0.188 0.113 0.282 0.338 0.282 0.084 0 0.149-0.017 0.196-0.050s0.070-0.082 0.070-0.143z"></path>
</svg>
